' Copyright (C) 2019 - present Juergen Zimmermann, Hochschule Karlsruhe
'
' This program is free software: you can redistribute it and/or modify
' it under the terms of the GNU General Public License as published by
' the Free Software Foundation, either version 3 of the License, or
' (at your option) any later version.
'
' This program is distributed in the hope that it will be useful,
' but WITHOUT ANY WARRANTY; without even the implied warranty of
' MERCHANTABILITY or FITNESS FOR A PARTICULAR PURPOSE.  See the
' GNU General Public License for more details.
'
' You should have received a copy of the GNU General Public License
' along with this program.  If not, see <https://www.gnu.org/licenses/>.

' Preview durch <Alt>d

@startuml Controller-Klasse

interface Promise<T>

package @nestjs/common {
  class "@Controller" as Controller
  hide Controller circle

  class "@UseGuards" as UseGuards
  hide UseGuards circle

  class "@UseInterceptors" as UseInterceptors
  hide UseInterceptors circle

  class "@Post" as Post
  hide Post circle

  class "@Put" as Put
  hide Put circle

  class "@Delete" as Delete
  hide Delete circle

  class "@Req" as Req
  hide Req circle

  class "@Res" as Res
  hide Res circle

  class "@Param" as Param
  hide Param circle

  class "@Body" as Body
  hide Body circle

  class "@Headers" as Headers
  hide Headers circle

  UseInterceptors .[hidden].> Post
  UseInterceptors .[hidden].> Put
  UseInterceptors .[hidden].> Delete

  Post .[hidden].> Req
  Post .[hidden].> Res
  Post .[hidden].> Param
  Post .[hidden].> Body
  Post .[hidden].> Headers
}

package nest-keycloak-connect {
  class AuthGuard

  class "@Roles" as Roles
  hide Roles circle
}

package express {
  class Request
  class Response

  Response .right[hidden].> Controller
}

package abteilung {
  package entity #FFFFFF {
    class Abteilung <<entity>>

    Abteilung .[hidden].> Promise
    Abteilung .[hidden].> Request
  }

  package service {
    class AbteilungWriteService << control >>
    class AbteilungReadService << control >>
  }

  package rest #DDDDDD {
    class AbteilungWriteController << control >> << @Controller() >> << @UseGuards() >> << @UseInterceptors() >> {
      + @Post() @Roles() async post(@Body() abteilung: Abteilung, @Req() req: Request,  @Res() res: Response): Promise<Response>
      + @Put() @Roles() async put(@Body() abteilung: Abteilung, @Param() id: number, @Headers() version: string, @Res() res: Response): Promise<Response>
      + @Delete() @Roles() async delete(@Param() id: number, @Res() res: Response): Promise<Response>
    }

    AbteilungWriteController o--> "1" AbteilungWriteService : service
    AbteilungWriteController o--> "1" AbteilungReadService : readService
    AbteilungWriteController ..up> Abteilung

    AbteilungWriteController ..> Controller

    AbteilungWriteController .up.> AuthGuard
    AbteilungWriteController .up.> Roles

    AbteilungWriteController ..> Request
    AbteilungWriteController ..> Response
    AbteilungWriteController ..> Promise

    Abteilung .up[hidden].> Roles
    AbteilungWriteService .[hidden].> Request
    AbteilungWriteService .[hidden].> Promise
  }
}

hide empty members

footer (c) Juergen Zimmermann

@enduml
